<svg width="49" height="42" viewBox="0 0 49 42" fill="none" xmlns="http://www.w3.org/2000/svg">
<g id="Group">
<g id="Group_2">
<path id="Vector" d="M24.4998 41.7143C23.5391 41.7143 22.7617 40.9369 22.7617 39.9762V1.7381C22.7617 0.778239 23.5391 0 24.4998 0C25.4605 0 26.2379 0.778239 26.2379 1.7381V39.9762C26.2379 40.9369 25.4605 41.7143 24.4998 41.7143Z" fill="white"/>
</g>
<g id="Group_3">
<path id="Vector_2" d="M16.9686 38.2381C16.0079 38.2381 15.2305 37.4607 15.2305 36.5V5.21429C15.2305 4.25444 16.0079 3.4762 16.9686 3.4762C17.9293 3.4762 18.7067 4.25444 18.7067 5.21429V36.5C18.7067 37.4607 17.9293 38.2381 16.9686 38.2381Z" fill="white"/>
</g>
<g id="Group_4">
<path id="Vector_3" d="M9.43573 34.7619C8.47502 34.7619 7.69763 33.9845 7.69763 33.0238V8.69049C7.69763 7.73063 8.47502 6.95239 9.43573 6.95239C10.3964 6.95239 11.1738 7.73063 11.1738 8.69049V33.0238C11.1738 33.9845 10.3964 34.7619 9.43573 34.7619Z" fill="#FFB800"/>
</g>
<g id="Group_5">
<path id="Vector_4" d="M1.9046 29.5476C0.943894 29.5476 0.166504 28.7702 0.166504 27.8095V13.9047C0.166504 12.9449 0.943894 12.1666 1.9046 12.1666C2.8653 12.1666 3.64269 12.9449 3.64269 13.9047V27.8095C3.64269 28.7702 2.8653 29.5476 1.9046 29.5476Z" fill="white"/>
</g>
<g id="Group_6">
<path id="Vector_5" d="M47.0952 29.5476C46.1344 29.5476 45.3571 28.7702 45.3571 27.8095V13.9047C45.3571 12.9449 46.1344 12.1666 47.0952 12.1666C48.0559 12.1666 48.8332 12.9449 48.8332 13.9047V27.8095C48.8332 28.7702 48.0559 29.5476 47.0952 29.5476Z" fill="#FFB800"/>
</g>
<g id="Group_7">
<path id="Vector_6" d="M39.5639 34.7619C38.6032 34.7619 37.8258 33.9845 37.8258 33.0238V8.69049C37.8258 7.73063 38.6032 6.95239 39.5639 6.95239C40.5246 6.95239 41.302 7.73063 41.302 8.69049V33.0238C41.302 33.9845 40.5246 34.7619 39.5639 34.7619Z" fill="white"/>
</g>
<g id="Group_8">
<path id="Vector_7" d="M32.0309 38.2381C31.0702 38.2381 30.2928 37.4607 30.2928 36.5V5.21429C30.2928 4.25444 31.0702 3.4762 32.0309 3.4762C32.9916 3.4762 33.769 4.25444 33.769 5.21429V36.5C33.769 37.4607 32.9916 38.2381 32.0309 38.2381Z" fill="#FFB800"/>
</g>
</g>
</svg>
